<svg xmlns="http://www.w3.org/2000/svg" version="1.1" xmlns:xlink="http://www.w3.org/1999/xlink" xmlns:svgjs="http://svgjs.dev/svgjs" width="1000" height="1000"><style>
    #light-icon {
      display: inline;
    }
    #dark-icon {
      display: none;
    }

    @media (prefers-color-scheme: dark) {
      #light-icon {
        display: none;
      }
      #dark-icon {
        display: inline;
      }
    }
  </style><g id="light-icon"><svg xmlns="http://www.w3.org/2000/svg" version="1.1" xmlns:xlink="http://www.w3.org/1999/xlink" xmlns:svgjs="http://svgjs.dev/svgjs" width="1000" height="1000"><g><g transform="matrix(1.953125,0,0,1.953125,0,0)"><svg xmlns="http://www.w3.org/2000/svg" version="1.1" xmlns:xlink="http://www.w3.org/1999/xlink" xmlns:svgjs="http://svgjs.dev/svgjs" width="512.000000pt" height="512.000000pt"><svg version="1.0" xmlns="http://www.w3.org/2000/svg" width="512.000000pt" height="512.000000pt" viewBox="0 0 512.000000 512.000000" preserveAspectRatio="xMidYMid meet">

<g transform="translate(0.000000,512.000000) scale(0.100000,-0.100000)" fill="#000000" stroke="none">
<path d="M2305 4053 c-343 -19 -774 -98 -1097 -202 -111 -36 -138 -60 -138
-123 0 -71 65 -112 142 -89 22 7 41 11 42 9 1 -2 31 -82 65 -178 94 -260 112
-289 213 -339 51 -26 73 -31 132 -31 121 0 212 56 265 162 50 99 45 159 -29
365 -33 91 -59 168 -57 170 6 5 191 32 271 39 l71 6 89 -249 c139 -386 152
-409 258 -462 51 -26 73 -31 132 -31 121 0 212 56 265 162 26 50 31 73 31 129
0 59 -9 93 -64 246 -35 98 -67 186 -72 197 -7 17 -2 18 85 11 112 -9 279 -30
285 -36 2 -2 45 -119 96 -259 51 -140 101 -271 111 -291 30 -61 67 -96 131
-128 199 -100 428 40 428 261 0 49 -8 89 -31 153 -16 48 -28 89 -25 92 8 8
188 -68 326 -138 346 -178 560 -398 649 -668 28 -85 27 -97 -13 -137 l-34 -34
-2272 0 -2272 0 -34 34 c-40 40 -41 52 -13 137 46 140 120 257 245 389 74 78
84 94 84 125 0 53 -44 95 -100 95 -39 0 -48 -6 -117 -72 -103 -100 -185 -211
-243 -332 -51 -104 -90 -227 -90 -281 0 -89 62 -198 139 -245 l41 -25 0 -220
0 -220 -45 -24 c-170 -90 -202 -321 -79 -571 39 -79 62 -110 133 -181 72 -72
102 -94 181 -132 169 -83 10 -77 2170 -77 2083 0 1994 -2 2125 53 154 64 286
189 359 339 122 250 91 479 -79 569 l-45 24 0 220 1 220 41 25 c76 47 138 156
138 245 0 54 -39 177 -90 281 -173 356 -552 634 -1118 820 -461 152 -1059 226
-1587 197z m377 -408 c87 -238 93 -277 50 -318 -20 -19 -39 -27 -65 -27 -62 0
-88 35 -147 200 -29 80 -69 194 -91 253 l-39 108 107 -3 108 -3 77 -210z m865
100 l108 -26 53 -147 c29 -81 52 -163 52 -181 0 -50 -42 -91 -91 -91 -68 0
-84 24 -169 258 -43 117 -74 212 -69 212 5 0 57 -11 116 -25z m-1902 -2 c55
-140 115 -323 115 -351 0 -51 -41 -92 -92 -92 -65 0 -88 32 -157 225 -34 94
-61 175 -61 181 0 8 131 47 181 53 4 1 10 -7 14 -16z m-330 -1483 l200 -200
-558 0 -557 0 0 200 0 200 358 0 357 0 200 -200z m1222 -177 l-377 -378 -377
378 -378 377 755 0 755 0 -378 -377z m800 0 l-377 -378 -127 128 -128 127 250
250 250 250 255 0 255 0 -378 -377z m1383 177 l0 -200 -557 0 -558 0 200 200
200 200 357 0 358 0 0 -200z m-2810 -594 c123 -122 205 -197 223 -201 54 -14
79 4 255 178 l172 171 173 -171 c175 -174 200 -192 255 -178 17 4 99 79 222
201 l196 194 716 0 c535 0 724 -3 743 -12 54 -25 68 -94 40 -203 -49 -189
-199 -336 -383 -374 -76 -16 -3850 -16 -3924 0 -189 40 -348 200 -387 387 -21
103 -9 161 40 188 19 11 166 13 744 14 l719 0 196 -194z"></path>
<path d="M751 3656 c-87 -48 -50 -186 49 -186 51 0 100 49 100 99 0 75 -83
124 -149 87z"></path>
</g>
</svg></svg></g></g></svg></g><g id="dark-icon"><svg xmlns="http://www.w3.org/2000/svg" version="1.1" xmlns:xlink="http://www.w3.org/1999/xlink" xmlns:svgjs="http://svgjs.dev/svgjs" width="1000" height="1000"><g clip-path="url(#SvgjsClipPath1765)"><rect width="1000" height="1000" fill="#ffffff"></rect><g transform="matrix(1.5625,0,0,1.5625,100,100)"><svg xmlns="http://www.w3.org/2000/svg" version="1.1" xmlns:xlink="http://www.w3.org/1999/xlink" xmlns:svgjs="http://svgjs.dev/svgjs" width="512.000000pt" height="512.000000pt"><svg version="1.0" xmlns="http://www.w3.org/2000/svg" width="512.000000pt" height="512.000000pt" viewBox="0 0 512.000000 512.000000" preserveAspectRatio="xMidYMid meet">

<g transform="translate(0.000000,512.000000) scale(0.100000,-0.100000)" fill="#000000" stroke="none">
<path d="M2305 4053 c-343 -19 -774 -98 -1097 -202 -111 -36 -138 -60 -138
-123 0 -71 65 -112 142 -89 22 7 41 11 42 9 1 -2 31 -82 65 -178 94 -260 112
-289 213 -339 51 -26 73 -31 132 -31 121 0 212 56 265 162 50 99 45 159 -29
365 -33 91 -59 168 -57 170 6 5 191 32 271 39 l71 6 89 -249 c139 -386 152
-409 258 -462 51 -26 73 -31 132 -31 121 0 212 56 265 162 26 50 31 73 31 129
0 59 -9 93 -64 246 -35 98 -67 186 -72 197 -7 17 -2 18 85 11 112 -9 279 -30
285 -36 2 -2 45 -119 96 -259 51 -140 101 -271 111 -291 30 -61 67 -96 131
-128 199 -100 428 40 428 261 0 49 -8 89 -31 153 -16 48 -28 89 -25 92 8 8
188 -68 326 -138 346 -178 560 -398 649 -668 28 -85 27 -97 -13 -137 l-34 -34
-2272 0 -2272 0 -34 34 c-40 40 -41 52 -13 137 46 140 120 257 245 389 74 78
84 94 84 125 0 53 -44 95 -100 95 -39 0 -48 -6 -117 -72 -103 -100 -185 -211
-243 -332 -51 -104 -90 -227 -90 -281 0 -89 62 -198 139 -245 l41 -25 0 -220
0 -220 -45 -24 c-170 -90 -202 -321 -79 -571 39 -79 62 -110 133 -181 72 -72
102 -94 181 -132 169 -83 10 -77 2170 -77 2083 0 1994 -2 2125 53 154 64 286
189 359 339 122 250 91 479 -79 569 l-45 24 0 220 1 220 41 25 c76 47 138 156
138 245 0 54 -39 177 -90 281 -173 356 -552 634 -1118 820 -461 152 -1059 226
-1587 197z m377 -408 c87 -238 93 -277 50 -318 -20 -19 -39 -27 -65 -27 -62 0
-88 35 -147 200 -29 80 -69 194 -91 253 l-39 108 107 -3 108 -3 77 -210z m865
100 l108 -26 53 -147 c29 -81 52 -163 52 -181 0 -50 -42 -91 -91 -91 -68 0
-84 24 -169 258 -43 117 -74 212 -69 212 5 0 57 -11 116 -25z m-1902 -2 c55
-140 115 -323 115 -351 0 -51 -41 -92 -92 -92 -65 0 -88 32 -157 225 -34 94
-61 175 -61 181 0 8 131 47 181 53 4 1 10 -7 14 -16z m-330 -1483 l200 -200
-558 0 -557 0 0 200 0 200 358 0 357 0 200 -200z m1222 -177 l-377 -378 -377
378 -378 377 755 0 755 0 -378 -377z m800 0 l-377 -378 -127 128 -128 127 250
250 250 250 255 0 255 0 -378 -377z m1383 177 l0 -200 -557 0 -558 0 200 200
200 200 357 0 358 0 0 -200z m-2810 -594 c123 -122 205 -197 223 -201 54 -14
79 4 255 178 l172 171 173 -171 c175 -174 200 -192 255 -178 17 4 99 79 222
201 l196 194 716 0 c535 0 724 -3 743 -12 54 -25 68 -94 40 -203 -49 -189
-199 -336 -383 -374 -76 -16 -3850 -16 -3924 0 -189 40 -348 200 -387 387 -21
103 -9 161 40 188 19 11 166 13 744 14 l719 0 196 -194z"></path>
<path d="M751 3656 c-87 -48 -50 -186 49 -186 51 0 100 49 100 99 0 75 -83
124 -149 87z"></path>
</g>
</svg></svg></g></g><defs><clipPath id="SvgjsClipPath1765"><rect width="1000" height="1000" x="0" y="0" rx="300" ry="300"></rect></clipPath></defs></svg></g></svg>